<svg width="203" height="193" viewBox="0 0 203 193" fill="none" xmlns="http://www.w3.org/2000/svg">
<path d="M-16.5591 44.8808C23.4486 44.8808 55.8813 12.4481 55.8813 -27.5596C55.8813 -67.5673 23.4486 -100 -16.5591 -100C-56.5668 -100 -88.9995 -67.5673 -88.9995 -27.5596C-88.9995 12.4481 -56.5668 44.8808 -16.5591 44.8808Z" fill="#FF388B"/>
<path d="M130.56 47.2338C170.567 47.2338 203 14.8012 203 -25.2066C203 -65.2143 170.567 -97.647 130.56 -97.647C90.5518 -97.647 58.1191 -65.2143 58.1191 -25.2066C58.1191 14.8012 90.5518 47.2338 130.56 47.2338Z" fill="#FF388B"/>
<path d="M-18.5596 192.971C21.4482 192.971 53.8808 160.538 53.8808 120.531C53.8808 80.5228 21.4482 48.0901 -18.5596 48.0901C-58.5673 48.0901 -91 80.5228 -91 120.531C-91 160.538 -58.5673 192.971 -18.5596 192.971Z" fill="#FF388B"/>
<path d="M130.56 192.971C170.567 192.971 203 160.538 203 120.531C203 80.5228 170.567 48.0901 130.56 48.0901C90.5518 48.0901 58.1191 80.5228 58.1191 120.531C58.1191 160.538 90.5518 192.971 130.56 192.971Z" fill="#FF388B"/>
</svg>
